<?xml version="1.0" standalone="no"?><!DOCTYPE svg PUBLIC "-//W3C//DTD SVG 1.1//EN" "http://www.w3.org/Graphics/SVG/1.1/DTD/svg11.dtd"><svg t="1576547707621" class="icon" viewBox="0 0 1024 1024" version="1.1" xmlns="http://www.w3.org/2000/svg" p-id="1176" xmlns:xlink="http://www.w3.org/1999/xlink" width="200" height="200"><defs><style type="text/css"></style></defs><path d="M896.8 683.7H746.7V533.4c0-12.3-10-22.2-22.2-22.2h-27.1c-12.2 0-22.2 10-22.2 22.2v150.4H525.1c-12.2 0-22.2 10-22.2 22.2v27.2c0 12.3 10 22.2 22.2 22.2h150.1v150.4c0 12.3 10 22.2 22.2 22.2h27.1c12.2 0 22.2-10 22.2-22.2V755.4h150.1c12.2 0 22.2-10 22.2-22.2V706c0-12.3-10-22.3-22.2-22.3z" p-id="1177" fill="#8a8a8a"></path><path d="M730.9 459c15.6 0 30.9 1.3 45.8 3.7V112c0.1-8.9-7.1-16-15.9-16H295v0.2l-126 0.3c-35.2 0.1-63.9 29-63.9 64.2l1.2 597.3c0.1 35.3 28.9 64 64.1 64l292.7-0.6c-7.9-25.9-12.1-53.4-12.1-81.8-0.1-155 125.3-280.6 279.9-280.6zM233.2 257h130c26.5 0 48 21.5 48 48.1s-21.5 48.1-48 48.1h-130c-26.5 0-48-21.5-48-48.1 0-26.5 21.5-48.1 48-48.1z m-48 232.5c0-26.6 21.5-48.1 48-48.1h240.1c26.4 0 48 21.5 48 48.1s-21.5 48.1-48 48.1H233.2c-26.5 0-48-21.5-48-48.1z" p-id="1178" fill="#8a8a8a"></path></svg>