<?xml version="1.0" standalone="no"?><!DOCTYPE svg PUBLIC "-//W3C//DTD SVG 1.1//EN" "http://www.w3.org/Graphics/SVG/1.1/DTD/svg11.dtd"><svg t="1576563836432" class="icon" viewBox="0 0 1024 1024" version="1.1" xmlns="http://www.w3.org/2000/svg" p-id="5694" xmlns:xlink="http://www.w3.org/1999/xlink" width="200" height="200"><defs><style type="text/css"></style></defs><path d="M864 960H160c-17.6 0-32-14.4-32-32V608c0-17.6 14.4-32 32-32s32 14.4 32 32v288h640V608c0-17.6 14.4-32 32-32s32 14.4 32 32v320c0 17.6-14.4 32-32 32z m64-448H96c-17.6 0-32-14.4-32-32V320c0-17.6 14.4-32 32-32h832c17.6 0 32 14.4 32 32v160c0 17.6-14.4 32-32 32z m-800-64h768v-96H128v96z m384 512c-17.6 0-32-14.4-32-32V320c0-17.6 14.4-32 32-32s32 14.4 32 32v608c0 17.6-14.4 32-32 32z m44.8-608c-22.4 0-41.6-6.4-56-20.8-62.4-62.4 35.2-216 67.2-249.6 24-22.4 56-36.8 91.2-36.8 33.6 0 65.6 12.8 91.2 36.8 49.6 49.6 49.6 131.2 0 180.8C724.8 288 627.2 352 556.8 352z m102.4-243.2c-17.6 0-33.6 6.4-44.8 19.2-36.8 36.8-81.6 139.2-67.2 158.4 19.2 12.8 120-30.4 158.4-68.8 25.6-25.6 25.6-65.6 0-91.2-14.4-11.2-30.4-17.6-46.4-17.6zM467.2 352c-72 0-168-64-193.6-88-24-24-36.8-56-36.8-91.2 0-33.6 12.8-65.6 36.8-91.2 49.6-49.6 131.2-49.6 180.8 0 12.8 12.8 12.8 32 0 44.8-12.8 12.8-32 12.8-44.8 0-25.6-25.6-65.6-25.6-91.2 0-12.8 12.8-19.2 28.8-19.2 44.8 0 17.6 6.4 33.6 19.2 44.8 36.8 36.8 139.2 81.6 158.4 67.2 12.8-12.8 32-12.8 44.8 0 12.8 12.8 12.8 33.6 0 44.8-12.8 17.6-32 24-54.4 24z" p-id="5695" fill="#d81e06"></path></svg>